<svg xmlns="http://www.w3.org/2000/svg" width="802" height="780" viewBox="0 0 802 780" version="1.1"><path d="M 472.580 43.871 C 472.301 44.322, 471.794 77.498, 471.454 117.596 C 471.113 157.693, 470.677 191.020, 470.485 191.656 C 470.244 192.451, 467.298 191.922, 461.043 189.961 C 438.675 182.948, 418.959 180.502, 391.500 181.334 C 369.009 182.016, 357.759 183.762, 338.221 189.604 C 331.467 191.623, 325.743 193.076, 325.499 192.833 C 325.256 192.589, 324.822 160.915, 324.534 122.445 C 324.082 61.889, 323.865 50.042, 323.129 45.748 C 323.058 45.334, 275.863 45.109, 218.250 45.248 C 160.637 45.386, 97.855 45.126, 78.734 44.669 L 43.968 43.837 44.128 71.669 C 44.216 86.976, 44.231 152.722, 44.161 217.771 L 44.034 336.042 119.149 336.486 C 160.462 336.730, 194.407 337.073, 194.582 337.249 C 194.758 337.425, 193.830 342.846, 192.521 349.295 C 186.120 380.821, 186.994 413.303, 195.092 444.818 C 196.691 451.042, 198 456.217, 198 456.318 C 198 456.418, 169.987 456.532, 135.750 456.571 C 75.132 456.640, 46.991 457.270, 44.829 458.606 C 44.085 459.065, 43.874 498.746, 44.123 590.881 C 44.320 663.271, 44.107 725.425, 43.651 729 L 42.821 735.500 89.160 735.633 C 114.647 735.706, 177.425 735.931, 228.666 736.133 C 279.908 736.335, 322.208 736.125, 322.666 735.666 C 323.125 735.207, 323.443 702.020, 323.373 661.916 C 323.278 607.139, 323.535 589, 324.408 589 C 325.047 589, 328.182 589.918, 331.376 591.041 C 334.569 592.163, 342.654 594.402, 349.341 596.016 C 387.388 605.198, 426.359 603.706, 465.250 591.577 L 470 590.096 470.099 593.298 C 470.456 604.789, 470.686 617.743, 471.445 669 C 471.913 700.625, 472.567 728.645, 472.898 731.267 L 473.500 736.034 615.457 736.010 C 697.093 735.997, 757.792 735.608, 758.304 735.096 C 758.825 734.575, 758.743 729.252, 758.106 722.277 C 757.421 714.774, 756.936 670.686, 756.796 603.425 C 756.509 464.871, 756.412 459.413, 754.208 458.385 C 753.269 457.947, 718.544 457.454, 677.043 457.288 C 635.542 457.122, 601.209 456.609, 600.747 456.147 C 600.285 455.685, 600.832 451.976, 601.963 447.904 C 610.365 417.632, 611.793 383.688, 605.977 352.494 C 604.850 346.447, 603.678 340.150, 603.374 338.500 L 602.820 335.500 676.160 335.555 C 716.497 335.586, 750.850 335.934, 752.500 336.330 L 755.500 337.049 755.500 269.275 C 755.500 231.999, 755.725 165.950, 756 122.500 L 756.500 43.500 731.500 44 C 692.742 44.775, 483.080 44.589, 477.794 43.775 C 475.205 43.376, 472.859 43.419, 472.580 43.871 M 660 86.050 C 654.775 86.449, 644.302 86.827, 636.727 86.888 L 622.953 87 580.683 129.250 C 557.434 152.488, 530.444 179.076, 520.706 188.334 C 510.968 197.593, 503 205.761, 503 206.484 C 503 207.208, 506.685 210.140, 511.189 212.999 C 515.693 215.859, 522.944 220.913, 527.303 224.230 L 535.227 230.262 561.863 203.844 C 576.513 189.313, 600.650 165.521, 615.500 150.971 C 676.733 90.976, 679.786 87.743, 676.921 85.930 C 675.379 84.954, 674.229 84.962, 660 86.050 M 123.009 88 C 123.041 92.603, 144.043 114.542, 216.340 185.500 C 240.997 209.700, 261.546 229.638, 262.004 229.806 C 262.462 229.974, 267.261 226.820, 272.668 222.797 C 278.076 218.773, 284.710 214.186, 287.411 212.604 L 292.322 209.727 281.387 199.114 C 275.373 193.276, 265.849 183.013, 260.222 176.306 C 254.595 169.600, 249.566 163.850, 249.046 163.528 C 248.526 163.207, 243.047 157.444, 236.870 150.722 C 215.471 127.434, 199.447 111.427, 188.290 102.194 C 182.125 97.092, 176.122 91.699, 174.951 90.209 C 172.588 87.202, 174.773 87.404, 137.749 86.758 C 125.186 86.538, 123 86.722, 123.009 88 M 231.776 89.500 C 233.064 91.703, 255.384 117.199, 265.480 128 C 271.392 134.325, 277.991 141.863, 280.146 144.750 C 282.300 147.637, 284.432 150, 284.883 150 C 285.334 150, 285.993 146.287, 286.346 141.750 C 287.145 131.479, 287.202 95.261, 286.425 91.375 L 285.850 88.500 258.520 88.500 C 240.577 88.500, 231.392 88.843, 231.776 89.500 M 512.564 89.931 C 511.776 92.640, 512.249 144.036, 513.066 144.541 C 513.845 145.022, 545.686 113.921, 554.059 104.500 C 562.609 94.880, 565 91.923, 565 90.965 C 565 90.378, 556.868 89.971, 544.250 89.927 C 532.837 89.887, 521.142 89.518, 518.260 89.108 C 513.933 88.491, 512.941 88.634, 512.564 89.931 M 703.743 129.253 C 701.676 131.589, 670.626 163.136, 634.743 199.358 C 598.859 235.580, 569.370 265.557, 569.212 265.973 C 569.053 266.389, 571.344 270.278, 574.301 274.615 C 577.259 278.952, 581.583 285.988, 583.910 290.250 C 586.236 294.513, 588.363 298, 588.635 298 C 590.016 298, 614.908 274.382, 653.564 236.393 C 677.249 213.117, 699.151 192.144, 702.234 189.786 C 710.940 183.129, 711.002 182.878, 710.986 154.216 C 710.972 129.062, 710.645 124.998, 708.633 125.003 C 708.010 125.005, 705.809 126.917, 703.743 129.253 M 90.667 127.667 C 90.300 128.033, 90 141.711, 90 158.062 C 90 191.768, 88.948 187.448, 99.170 195.721 C 104.828 200.300, 138.528 231.501, 152.862 245.430 C 167.731 259.880, 167.624 259.774, 188.697 281.260 C 201.907 294.730, 208.170 300.470, 208.781 299.667 C 209.269 299.025, 211.610 294.900, 213.983 290.500 C 216.356 286.100, 220.030 279.937, 222.149 276.805 C 224.267 273.673, 226 270.559, 226 269.885 C 226 268.585, 222.091 264.347, 196.532 237.930 C 187.714 228.816, 177.856 218.466, 174.623 214.930 C 171.391 211.393, 164.412 204, 159.113 198.500 C 146.791 185.709, 130.970 168.473, 123.256 159.436 C 119.940 155.551, 114.955 150.429, 112.178 148.054 C 109.401 145.680, 103.896 139.971, 99.945 135.368 C 92.839 127.091, 91.967 126.367, 90.667 127.667 M 698 240.200 C 689.489 245.467, 675.162 259.059, 665.049 271.462 C 659.250 278.573, 650 291.345, 650 292.239 C 650 292.506, 661.138 293.005, 674.750 293.348 C 688.362 293.691, 700.962 294.254, 702.750 294.600 L 706 295.227 706 266.613 L 706 238 703.750 238.017 C 702.513 238.026, 699.925 239.008, 698 240.200 M 93.486 242.250 C 93.075 243.488, 92.527 256.158, 92.269 270.406 L 91.799 296.312 100.150 295.662 C 104.742 295.304, 116.277 295.009, 125.781 295.006 C 146.062 294.999, 146.215 294.909, 140.530 286.347 C 137.542 281.848, 125.315 267.259, 120.524 262.478 C 114.649 256.615, 95.920 240, 95.186 240 C 94.662 240, 93.897 241.012, 93.486 242.250 M 377 241.440 C 318.766 249.829, 270.531 290.598, 252.699 346.500 C 247.431 363.016, 245.627 374.922, 245.651 393 C 245.686 418.231, 250.626 439.339, 261.669 461.445 C 298.068 534.306, 384.897 565.627, 460.082 533.018 C 491.733 519.290, 519.628 492.603, 535.629 460.743 C 556.402 419.381, 556.402 366.619, 535.629 325.257 C 514.187 282.564, 474.430 252.077, 428.300 242.956 C 414.462 240.220, 390.405 239.509, 377 241.440 M 385.500 273.565 C 366.755 276.604, 345.691 284.708, 331.151 294.473 C 313.512 306.320, 294.366 332.466, 287.561 354 C 284.461 363.809, 284.091 365.359, 282.434 375.500 C 280.120 389.656, 280.931 408.108, 284.456 421.500 C 290.135 443.082, 300.380 460.573, 317.026 477.109 C 325.772 485.797, 327.790 487.245, 338.099 492.229 C 348.645 497.327, 359.516 500.897, 374.500 504.184 C 378.153 504.985, 387.151 505.500, 397.500 505.500 C 415.127 505.500, 418.914 504.981, 435.957 500.233 C 452.981 495.490, 467.645 486.427, 482.219 471.642 C 498.030 455.601, 506.477 438.792, 513.196 410 C 514.947 402.495, 514.910 372.460, 513.139 364 C 509.414 346.204, 503.563 334.116, 490.809 317.869 C 483.379 308.404, 474.759 300.102, 465.500 293.495 C 458.581 288.558, 443.529 280.326, 438.758 278.871 C 429.552 276.063, 423.906 274.866, 415.617 273.965 C 398.948 272.153, 394.571 272.095, 385.500 273.565 M 389 324.121 C 376.194 327.564, 370.827 329.746, 364 334.285 C 354.422 340.653, 343.073 353.508, 339.092 362.500 C 334.628 372.584, 333.606 394.837, 337.023 407.587 C 338.136 411.740, 340.916 419.036, 343.201 423.801 C 352.602 443.404, 375.585 459, 395.074 459 C 413.491 459, 436.078 448.505, 447.402 434.685 C 456.294 423.833, 463.026 403.483, 462.964 387.641 C 462.890 368.619, 457.242 354.921, 444.282 342.330 C 429.427 327.899, 404.944 319.835, 389 324.121 M 393.500 357 C 393.160 357.550, 391.965 358, 390.845 358 C 385.426 358, 376.818 365.664, 372.494 374.339 C 369.846 379.651, 369.586 381.093, 369.610 390.339 C 369.640 401.775, 371.048 405.727, 377.725 413.117 C 383.625 419.648, 387.999 421.386, 398.500 421.373 C 406.496 421.363, 408.058 421.049, 412.500 418.555 C 421.108 413.722, 426.320 407.571, 429.042 399.028 C 431.656 390.824, 430.927 383.665, 426.442 373.500 C 425.063 370.376, 417.140 362.407, 413.263 360.246 C 406.636 356.552, 394.962 354.635, 393.500 357 M 195.438 495.750 C 188.993 503.313, 176.696 516.538, 168.110 525.140 C 146.029 547.263, 125.553 568.916, 116.232 580 C 106.414 591.674, 105.134 592.857, 97 597.770 C 87.977 603.220, 87.859 603.665, 88.552 629.500 C 89.129 650.982, 89.657 657, 90.965 657 C 92.484 657, 162.797 586.011, 190.508 556.500 C 199.804 546.600, 210.805 535.075, 214.955 530.890 C 219.105 526.704, 223.982 521.713, 225.794 519.797 L 229.087 516.315 222.794 506.854 C 219.332 501.650, 214.700 493.934, 212.500 489.707 C 210.300 485.480, 208.197 482.017, 207.827 482.011 C 207.457 482.005, 201.882 488.188, 195.438 495.750 M 584.117 491.750 C 582.516 494.913, 578.459 501.675, 575.103 506.778 C 571.746 511.881, 569 516.412, 569 516.847 C 569 517.842, 637.894 587.278, 660.025 608.588 C 669.113 617.340, 683.600 631.221, 692.217 639.435 C 700.834 647.650, 708.688 655.862, 709.670 657.685 C 710.652 659.508, 711.835 661, 712.300 661 C 712.765 661, 713 648.962, 712.823 634.250 C 712.495 607.126, 711.936 603, 708.585 603 C 705.146 603, 683.068 582.028, 656.998 554 C 636.096 531.528, 589.663 486, 587.644 486 C 587.306 486, 585.719 488.587, 584.117 491.750 M 700.500 495.038 C 697.200 495.448, 686.723 495.832, 677.219 495.891 C 662.552 495.984, 659.847 496.236, 659.339 497.560 C 658.990 498.469, 659.756 500.241, 661.177 501.810 C 664.253 505.207, 669.162 511.618, 670.598 514.114 C 671.202 515.163, 673.452 517.939, 675.598 520.281 C 677.744 522.623, 681.473 526.781, 683.884 529.520 C 692.311 539.092, 707.390 554, 708.644 554 C 710.969 554, 711.302 546.802, 710.016 524.400 C 709.315 512.174, 709.043 500.964, 709.413 499.490 C 710.037 497.005, 708.661 493.788, 707.128 494.147 C 706.782 494.228, 703.800 494.629, 700.500 495.038 M 90.750 496.617 C 90.457 497.103, 90.675 502.225, 91.233 508 C 91.954 515.446, 91.922 521.173, 91.125 527.692 C 89.555 540.520, 89.652 548.929, 91.377 549.591 C 93.608 550.447, 98.509 546.849, 108.701 536.873 C 120.352 525.469, 139.014 505.434, 141.454 501.710 C 144.300 497.366, 142.435 496.121, 134.763 497.244 C 128.774 498.121, 113.596 497.760, 98.391 496.379 C 94.482 496.024, 91.043 496.131, 90.750 496.617 M 258.171 555.755 C 252.048 562.642, 209.822 606.160, 179.789 636.536 C 149.979 666.686, 131.368 687.911, 132.395 690.587 C 132.821 691.698, 135.561 692.001, 145.219 692.005 C 151.973 692.007, 162.521 692.298, 168.657 692.652 L 179.815 693.295 184.657 687.907 C 196.319 674.931, 253.022 616.775, 276.359 593.854 L 295.344 575.208 287.922 570.467 C 283.840 567.860, 276.380 562.638, 271.343 558.863 C 266.307 555.089, 262.032 552.002, 261.843 552.005 C 261.655 552.008, 260.002 553.696, 258.171 555.755 M 523.543 561.025 C 518.617 564.775, 511.985 569.341, 508.804 571.172 C 505.624 573.002, 503.017 575.195, 503.011 576.044 C 503.005 576.893, 508.934 583.418, 516.187 590.544 C 523.440 597.670, 534.782 609.125, 541.391 616 C 548 622.875, 557.929 632.773, 563.454 637.995 C 568.979 643.218, 583.763 657.713, 596.307 670.207 L 619.115 692.923 635.307 692.328 C 645.073 691.970, 655.642 692.190, 661.934 692.882 C 667.820 693.531, 672.746 693.654, 673.235 693.165 C 673.724 692.676, 665.687 684.061, 654.801 673.404 C 622.521 641.803, 576.298 595.972, 568.172 587.510 C 546.412 564.849, 535.351 554.041, 534 554.120 C 533.175 554.168, 528.469 557.275, 523.543 561.025 M 265.773 649.750 C 241.530 673.214, 238.175 676.766, 234.959 682.374 C 233.316 685.239, 232.015 688.985, 232.009 690.867 C 232 694.061, 232.140 694.194, 234.750 693.460 C 236.262 693.034, 248.300 692.510, 261.500 692.295 L 285.500 691.904 285.692 662.952 C 285.877 635.005, 285.817 634, 283.964 634 C 282.842 634, 275.289 640.539, 265.773 649.750 M 512.676 642.775 C 512.432 643.724, 512.292 655.262, 512.366 668.415 L 512.500 692.330 536.968 692.090 C 550.425 691.957, 561.789 691.631, 562.220 691.364 C 563.309 690.691, 561.910 688.326, 555.084 679.301 C 546.439 667.870, 527.523 650.022, 517.309 643.660 C 513.561 641.325, 513.072 641.232, 512.676 642.775" stroke="none" fill="#111111" fill-rule="evenodd"/><path d="M 0 390.001 L 0 780.002 401.250 779.751 L 802.500 779.500 802.751 389.750 L 803.003 -0 401.501 -0 L 0 0 0 390.001 M 0.495 390.500 C 0.495 605, 0.610 692.899, 0.750 585.831 C 0.890 478.764, 0.890 303.264, 0.750 195.831 C 0.610 88.399, 0.495 176, 0.495 390.500 M 472.580 43.871 C 472.301 44.322, 471.794 77.498, 471.454 117.596 C 471.113 157.693, 470.677 191.020, 470.485 191.656 C 470.244 192.451, 467.298 191.922, 461.043 189.961 C 438.675 182.948, 418.959 180.502, 391.500 181.334 C 369.009 182.016, 357.759 183.762, 338.221 189.604 C 331.467 191.623, 325.743 193.076, 325.499 192.833 C 325.256 192.589, 324.822 160.915, 324.534 122.445 C 324.082 61.889, 323.865 50.042, 323.129 45.748 C 323.058 45.334, 275.863 45.109, 218.250 45.248 C 160.637 45.386, 97.855 45.126, 78.734 44.669 L 43.968 43.837 44.128 71.669 C 44.216 86.976, 44.231 152.722, 44.161 217.771 L 44.034 336.042 119.149 336.486 C 160.462 336.730, 194.407 337.073, 194.582 337.249 C 194.758 337.425, 193.830 342.846, 192.521 349.295 C 186.120 380.821, 186.994 413.303, 195.092 444.818 C 196.691 451.042, 198 456.217, 198 456.318 C 198 456.418, 169.987 456.532, 135.750 456.571 C 75.132 456.640, 46.991 457.270, 44.829 458.606 C 44.085 459.065, 43.874 498.746, 44.123 590.881 C 44.320 663.271, 44.107 725.425, 43.651 729 L 42.821 735.500 89.160 735.633 C 114.647 735.706, 177.425 735.931, 228.666 736.133 C 279.908 736.335, 322.208 736.125, 322.666 735.666 C 323.125 735.207, 323.443 702.020, 323.373 661.916 C 323.278 607.139, 323.535 589, 324.408 589 C 325.047 589, 328.182 589.918, 331.376 591.041 C 334.569 592.163, 342.654 594.402, 349.341 596.016 C 387.388 605.198, 426.359 603.706, 465.250 591.577 L 470 590.096 470.099 593.298 C 470.456 604.789, 470.686 617.743, 471.445 669 C 471.913 700.625, 472.567 728.645, 472.898 731.267 L 473.500 736.034 615.457 736.010 C 697.093 735.997, 757.792 735.608, 758.304 735.096 C 758.825 734.575, 758.743 729.252, 758.106 722.277 C 757.421 714.774, 756.936 670.686, 756.796 603.425 C 756.509 464.871, 756.412 459.413, 754.208 458.385 C 753.269 457.947, 718.544 457.454, 677.043 457.288 C 635.542 457.122, 601.209 456.609, 600.747 456.147 C 600.285 455.685, 600.832 451.976, 601.963 447.904 C 610.365 417.632, 611.793 383.688, 605.977 352.494 C 604.850 346.447, 603.678 340.150, 603.374 338.500 L 602.820 335.500 676.160 335.555 C 716.497 335.586, 750.850 335.934, 752.500 336.330 L 755.500 337.049 755.500 269.275 C 755.500 231.999, 755.725 165.950, 756 122.500 L 756.500 43.500 731.500 44 C 692.742 44.775, 483.080 44.589, 477.794 43.775 C 475.205 43.376, 472.859 43.419, 472.580 43.871 M 660 86.050 C 654.775 86.449, 644.302 86.827, 636.727 86.888 L 622.953 87 580.683 129.250 C 557.434 152.488, 530.444 179.076, 520.706 188.334 C 510.968 197.593, 503 205.761, 503 206.484 C 503 207.208, 506.685 210.140, 511.189 212.999 C 515.693 215.859, 522.944 220.913, 527.303 224.230 L 535.227 230.262 561.863 203.844 C 576.513 189.313, 600.650 165.521, 615.500 150.971 C 676.733 90.976, 679.786 87.743, 676.921 85.930 C 675.379 84.954, 674.229 84.962, 660 86.050 M 123.009 88 C 123.041 92.603, 144.043 114.542, 216.340 185.500 C 240.997 209.700, 261.546 229.638, 262.004 229.806 C 262.462 229.974, 267.261 226.820, 272.668 222.797 C 278.076 218.773, 284.710 214.186, 287.411 212.604 L 292.322 209.727 281.387 199.114 C 275.373 193.276, 265.849 183.013, 260.222 176.306 C 254.595 169.600, 249.566 163.850, 249.046 163.528 C 248.526 163.207, 243.047 157.444, 236.870 150.722 C 215.471 127.434, 199.447 111.427, 188.290 102.194 C 182.125 97.092, 176.122 91.699, 174.951 90.209 C 172.588 87.202, 174.773 87.404, 137.749 86.758 C 125.186 86.538, 123 86.722, 123.009 88 M 231.776 89.500 C 233.064 91.703, 255.384 117.199, 265.480 128 C 271.392 134.325, 277.991 141.863, 280.146 144.750 C 282.300 147.637, 284.432 150, 284.883 150 C 285.334 150, 285.993 146.287, 286.346 141.750 C 287.145 131.479, 287.202 95.261, 286.425 91.375 L 285.850 88.500 258.520 88.500 C 240.577 88.500, 231.392 88.843, 231.776 89.500 M 512.564 89.931 C 511.776 92.640, 512.249 144.036, 513.066 144.541 C 513.845 145.022, 545.686 113.921, 554.059 104.500 C 562.609 94.880, 565 91.923, 565 90.965 C 565 90.378, 556.868 89.971, 544.250 89.927 C 532.837 89.887, 521.142 89.518, 518.260 89.108 C 513.933 88.491, 512.941 88.634, 512.564 89.931 M 703.743 129.253 C 701.676 131.589, 670.626 163.136, 634.743 199.358 C 598.859 235.580, 569.370 265.557, 569.212 265.973 C 569.053 266.389, 571.344 270.278, 574.301 274.615 C 577.259 278.952, 581.583 285.988, 583.910 290.250 C 586.236 294.513, 588.363 298, 588.635 298 C 590.016 298, 614.908 274.382, 653.564 236.393 C 677.249 213.117, 699.151 192.144, 702.234 189.786 C 710.940 183.129, 711.002 182.878, 710.986 154.216 C 710.972 129.062, 710.645 124.998, 708.633 125.003 C 708.010 125.005, 705.809 126.917, 703.743 129.253 M 90.667 127.667 C 90.300 128.033, 90 141.711, 90 158.062 C 90 191.768, 88.948 187.448, 99.170 195.721 C 104.828 200.300, 138.528 231.501, 152.862 245.430 C 167.731 259.880, 167.624 259.774, 188.697 281.260 C 201.907 294.730, 208.170 300.470, 208.781 299.667 C 209.269 299.025, 211.610 294.900, 213.983 290.500 C 216.356 286.100, 220.030 279.937, 222.149 276.805 C 224.267 273.673, 226 270.559, 226 269.885 C 226 268.585, 222.091 264.347, 196.532 237.930 C 187.714 228.816, 177.856 218.466, 174.623 214.930 C 171.391 211.393, 164.412 204, 159.113 198.500 C 146.791 185.709, 130.970 168.473, 123.256 159.436 C 119.940 155.551, 114.955 150.429, 112.178 148.054 C 109.401 145.680, 103.896 139.971, 99.945 135.368 C 92.839 127.091, 91.967 126.367, 90.667 127.667 M 698 240.200 C 689.489 245.467, 675.162 259.059, 665.049 271.462 C 659.250 278.573, 650 291.345, 650 292.239 C 650 292.506, 661.138 293.005, 674.750 293.348 C 688.362 293.691, 700.962 294.254, 702.750 294.600 L 706 295.227 706 266.613 L 706 238 703.750 238.017 C 702.513 238.026, 699.925 239.008, 698 240.200 M 93.486 242.250 C 93.075 243.488, 92.527 256.158, 92.269 270.406 L 91.799 296.312 100.150 295.662 C 104.742 295.304, 116.277 295.009, 125.781 295.006 C 146.062 294.999, 146.215 294.909, 140.530 286.347 C 137.542 281.848, 125.315 267.259, 120.524 262.478 C 114.649 256.615, 95.920 240, 95.186 240 C 94.662 240, 93.897 241.012, 93.486 242.250 M 377 241.440 C 318.766 249.829, 270.531 290.598, 252.699 346.500 C 247.431 363.016, 245.627 374.922, 245.651 393 C 245.686 418.231, 250.626 439.339, 261.669 461.445 C 298.068 534.306, 384.897 565.627, 460.082 533.018 C 491.733 519.290, 519.628 492.603, 535.629 460.743 C 556.402 419.381, 556.402 366.619, 535.629 325.257 C 514.187 282.564, 474.430 252.077, 428.300 242.956 C 414.462 240.220, 390.405 239.509, 377 241.440 M 385.500 273.565 C 366.755 276.604, 345.691 284.708, 331.151 294.473 C 313.512 306.320, 294.366 332.466, 287.561 354 C 284.461 363.809, 284.091 365.359, 282.434 375.500 C 280.120 389.656, 280.931 408.108, 284.456 421.500 C 290.135 443.082, 300.380 460.573, 317.026 477.109 C 325.772 485.797, 327.790 487.245, 338.099 492.229 C 348.645 497.327, 359.516 500.897, 374.500 504.184 C 378.153 504.985, 387.151 505.500, 397.500 505.500 C 415.127 505.500, 418.914 504.981, 435.957 500.233 C 452.981 495.490, 467.645 486.427, 482.219 471.642 C 498.030 455.601, 506.477 438.792, 513.196 410 C 514.947 402.495, 514.910 372.460, 513.139 364 C 509.414 346.204, 503.563 334.116, 490.809 317.869 C 483.379 308.404, 474.759 300.102, 465.500 293.495 C 458.581 288.558, 443.529 280.326, 438.758 278.871 C 429.552 276.063, 423.906 274.866, 415.617 273.965 C 398.948 272.153, 394.571 272.095, 385.500 273.565 M 389 324.121 C 376.194 327.564, 370.827 329.746, 364 334.285 C 354.422 340.653, 343.073 353.508, 339.092 362.500 C 334.628 372.584, 333.606 394.837, 337.023 407.587 C 338.136 411.740, 340.916 419.036, 343.201 423.801 C 352.602 443.404, 375.585 459, 395.074 459 C 413.491 459, 436.078 448.505, 447.402 434.685 C 456.294 423.833, 463.026 403.483, 462.964 387.641 C 462.890 368.619, 457.242 354.921, 444.282 342.330 C 429.427 327.899, 404.944 319.835, 389 324.121 M 393.500 357 C 393.160 357.550, 391.965 358, 390.845 358 C 385.426 358, 376.818 365.664, 372.494 374.339 C 369.846 379.651, 369.586 381.093, 369.610 390.339 C 369.640 401.775, 371.048 405.727, 377.725 413.117 C 383.625 419.648, 387.999 421.386, 398.500 421.373 C 406.496 421.363, 408.058 421.049, 412.500 418.555 C 421.108 413.722, 426.320 407.571, 429.042 399.028 C 431.656 390.824, 430.927 383.665, 426.442 373.500 C 425.063 370.376, 417.140 362.407, 413.263 360.246 C 406.636 356.552, 394.962 354.635, 393.500 357 M 195.438 495.750 C 188.993 503.313, 176.696 516.538, 168.110 525.140 C 146.029 547.263, 125.553 568.916, 116.232 580 C 106.414 591.674, 105.134 592.857, 97 597.770 C 87.977 603.220, 87.859 603.665, 88.552 629.500 C 89.129 650.982, 89.657 657, 90.965 657 C 92.484 657, 162.797 586.011, 190.508 556.500 C 199.804 546.600, 210.805 535.075, 214.955 530.890 C 219.105 526.704, 223.982 521.713, 225.794 519.797 L 229.087 516.315 222.794 506.854 C 219.332 501.650, 214.700 493.934, 212.500 489.707 C 210.300 485.480, 208.197 482.017, 207.827 482.011 C 207.457 482.005, 201.882 488.188, 195.438 495.750 M 584.117 491.750 C 582.516 494.913, 578.459 501.675, 575.103 506.778 C 571.746 511.881, 569 516.412, 569 516.847 C 569 517.842, 637.894 587.278, 660.025 608.588 C 669.113 617.340, 683.600 631.221, 692.217 639.435 C 700.834 647.650, 708.688 655.862, 709.670 657.685 C 710.652 659.508, 711.835 661, 712.300 661 C 712.765 661, 713 648.962, 712.823 634.250 C 712.495 607.126, 711.936 603, 708.585 603 C 705.146 603, 683.068 582.028, 656.998 554 C 636.096 531.528, 589.663 486, 587.644 486 C 587.306 486, 585.719 488.587, 584.117 491.750 M 700.500 495.038 C 697.200 495.448, 686.723 495.832, 677.219 495.891 C 662.552 495.984, 659.847 496.236, 659.339 497.560 C 658.990 498.469, 659.756 500.241, 661.177 501.810 C 664.253 505.207, 669.162 511.618, 670.598 514.114 C 671.202 515.163, 673.452 517.939, 675.598 520.281 C 677.744 522.623, 681.473 526.781, 683.884 529.520 C 692.311 539.092, 707.390 554, 708.644 554 C 710.969 554, 711.302 546.802, 710.016 524.400 C 709.315 512.174, 709.043 500.964, 709.413 499.490 C 710.037 497.005, 708.661 493.788, 707.128 494.147 C 706.782 494.228, 703.800 494.629, 700.500 495.038 M 90.750 496.617 C 90.457 497.103, 90.675 502.225, 91.233 508 C 91.954 515.446, 91.922 521.173, 91.125 527.692 C 89.555 540.520, 89.652 548.929, 91.377 549.591 C 93.608 550.447, 98.509 546.849, 108.701 536.873 C 120.352 525.469, 139.014 505.434, 141.454 501.710 C 144.300 497.366, 142.435 496.121, 134.763 497.244 C 128.774 498.121, 113.596 497.760, 98.391 496.379 C 94.482 496.024, 91.043 496.131, 90.750 496.617 M 258.171 555.755 C 252.048 562.642, 209.822 606.160, 179.789 636.536 C 149.979 666.686, 131.368 687.911, 132.395 690.587 C 132.821 691.698, 135.561 692.001, 145.219 692.005 C 151.973 692.007, 162.521 692.298, 168.657 692.652 L 179.815 693.295 184.657 687.907 C 196.319 674.931, 253.022 616.775, 276.359 593.854 L 295.344 575.208 287.922 570.467 C 283.840 567.860, 276.380 562.638, 271.343 558.863 C 266.307 555.089, 262.032 552.002, 261.843 552.005 C 261.655 552.008, 260.002 553.696, 258.171 555.755 M 523.543 561.025 C 518.617 564.775, 511.985 569.341, 508.804 571.172 C 505.624 573.002, 503.017 575.195, 503.011 576.044 C 503.005 576.893, 508.934 583.418, 516.187 590.544 C 523.440 597.670, 534.782 609.125, 541.391 616 C 548 622.875, 557.929 632.773, 563.454 637.995 C 568.979 643.218, 583.763 657.713, 596.307 670.207 L 619.115 692.923 635.307 692.328 C 645.073 691.970, 655.642 692.190, 661.934 692.882 C 667.820 693.531, 672.746 693.654, 673.235 693.165 C 673.724 692.676, 665.687 684.061, 654.801 673.404 C 622.521 641.803, 576.298 595.972, 568.172 587.510 C 546.412 564.849, 535.351 554.041, 534 554.120 C 533.175 554.168, 528.469 557.275, 523.543 561.025 M 265.773 649.750 C 241.530 673.214, 238.175 676.766, 234.959 682.374 C 233.316 685.239, 232.015 688.985, 232.009 690.867 C 232 694.061, 232.140 694.194, 234.750 693.460 C 236.262 693.034, 248.300 692.510, 261.500 692.295 L 285.500 691.904 285.692 662.952 C 285.877 635.005, 285.817 634, 283.964 634 C 282.842 634, 275.289 640.539, 265.773 649.750 M 512.676 642.775 C 512.432 643.724, 512.292 655.262, 512.366 668.415 L 512.500 692.330 536.968 692.090 C 550.425 691.957, 561.789 691.631, 562.220 691.364 C 563.309 690.691, 561.910 688.326, 555.084 679.301 C 546.439 667.870, 527.523 650.022, 517.309 643.660 C 513.561 641.325, 513.072 641.232, 512.676 642.775" stroke="none" fill="#efefef" fill-rule="evenodd"/></svg>